
        <svg xmlns="http://www.w3.org/2000/svg" xmlns:xlink="http://www.w3.org/1999/xlink" version="1.1" width="3171.4285714285716" height="2259.829579276021" viewBox="0 0 3171.4285714285716 2259.829579276021">
			
			<g transform="scale(8.571428571428571) translate(10, 10)">
				<defs id="SvgjsDefs1884"/><g id="SvgjsG1885" featureKey="pxMwYC-0" transform="matrix(1.4893617021276595,0,0,1.4893617021276595,103.51063829787235,-1.4893617021276595)" fill="#000"><path xmlns="http://www.w3.org/2000/svg" d="M66.594,15.606l14.64-.84-.846,14.748a15.016,15.016,0,0,1-.4,2.7,21.051,21.051,0,0,0-10.194-1.042l-2.652-.212,4.5-4.5A1.58,1.58,0,1,0,69.4,24.225L59.111,34.518l-.286-3.584a1.58,1.58,0,0,0-3.155.124c0,.042,0,.084,0,.127l.405,5.078-3.259,3.656a9.356,9.356,0,0,0-2.515-1.045l.431-7.513A17.216,17.216,0,0,1,66.594,15.606ZM48,41.747A6.253,6.253,0,1,0,54.253,48,6.26,6.26,0,0,0,48,41.747Zm-4.82-1.828a9.345,9.345,0,0,1,3.143-1.179V34.759c-.015-.012-.031-.023-.046-.036l-4.74-4.04a1.58,1.58,0,1,1,2.05-2.405l2.736,2.333V16.054a1.58,1.58,0,1,1,3.16,0v6.363l2.01-1.713a21.069,21.069,0,0,1,7.962-6.485,15.179,15.179,0,0,0-1.625-2.193L48,1,38.241,11.946A17.218,17.218,0,0,0,38.17,34.3ZM31.361,45.264l7.513.43a9.357,9.357,0,0,1,1.395-3.054l-2.817-2.817c-.02,0-.039.006-.059.007l-6.208.5c-.043,0-.086,0-.128,0a1.58,1.58,0,0,1-1.573-1.454c0-.043-.005-.085-.005-.127a1.58,1.58,0,0,1,1.455-1.574l3.584-.286L24.225,26.6a1.58,1.58,0,0,1,2.235-2.234l4.5,4.5.212-2.652a21.054,21.054,0,0,1,1.042-10.195,15.016,15.016,0,0,0-2.7-.4l-14.748-.846.84,14.64A17.219,17.219,0,0,0,31.361,45.264ZM34.3,57.83l5.619-5.01a9.345,9.345,0,0,1-1.179-3.143H34.759c-.013.015-.023.031-.036.046l-4.04,4.74a1.58,1.58,0,1,1-2.405-2.05l2.333-2.736H16.054a1.58,1.58,0,1,1,0-3.16h6.363L20.7,44.506a21.068,21.068,0,0,1-6.484-7.96,15.215,15.215,0,0,0-2.194,1.623L1,48l10.946,9.759A17.218,17.218,0,0,0,34.3,57.83Zm10.963,6.809.431-7.513a9.357,9.357,0,0,1-3.054-1.395l-2.817,2.818c0,.019.006.038.007.058l.5,6.208c0,.043,0,.085,0,.127a1.58,1.58,0,0,1-1.454,1.574c-.043,0-.085,0-.128,0a1.58,1.58,0,0,1-1.573-1.455l-.286-3.584L26.6,71.775a1.58,1.58,0,0,1-2.234-2.235l4.5-4.5-2.651-.211a21.242,21.242,0,0,1-3.014.22,20.927,20.927,0,0,1-7.182-1.264,15.13,15.13,0,0,0-.4,2.7l-.846,14.748,14.64-.84A17.216,17.216,0,0,0,45.263,64.639Zm7.557-8.558a9.345,9.345,0,0,1-3.143,1.179v3.981c.015.013.031.024.047.036l4.739,4.04a1.58,1.58,0,1,1-2.05,2.405l-2.736-2.333V79.946a1.58,1.58,0,0,1-3.16,0V73.582L44.507,75.3a21.075,21.075,0,0,1-7.961,6.485,15.192,15.192,0,0,0,1.624,2.193L48,95l9.759-10.946A17.218,17.218,0,0,0,57.83,61.7Zm11.819-5.345-7.513-.43a9.357,9.357,0,0,1-1.395,3.054l2.817,2.817c.02,0,.039-.006.059-.007l6.208-.5a1.579,1.579,0,0,1,1.7,1.449c0,.043,0,.085,0,.127a1.58,1.58,0,0,1-1.455,1.574l-3.584.286L71.775,69.4a1.58,1.58,0,0,1-2.235,2.234l-4.5-4.5-.212,2.652a21.054,21.054,0,0,1-1.042,10.195,15.016,15.016,0,0,0,2.7.4l14.748.846L80.4,66.594A17.221,17.221,0,0,0,64.639,50.736ZM84.054,38.241A17.218,17.218,0,0,0,61.7,38.17l-5.619,5.01a9.345,9.345,0,0,1,1.179,3.143h3.981c.013-.015.023-.031.036-.046l4.04-4.74a1.58,1.58,0,1,1,2.405,2.05l-2.333,2.736H79.946a1.58,1.58,0,0,1,0,3.16H73.583L75.3,51.494a21.075,21.075,0,0,1,6.483,7.96,15.215,15.215,0,0,0,2.194-1.623L95,48Z"/></g><g id="SvgjsG1886" featureKey="Vx5QiU-0" transform="matrix(4.299753816149608,0,0,4.299753816149608,-3.1818147895327717,140.1351378614566)" fill="#000"><path d="M12.65 19.18 q-1.85 1.1 -4.03 1.1 q-2.14 0 -3.95 -1.02 t-2.87 -2.76 t-1.06 -3.8 q0 -2.04 1.06 -3.78 t2.87 -2.76 t3.95 -1.02 q2.16 0 4.02 1.09 t2.92 2.91 l-2.94 1.14 q-0.7 -1 -1.77 -1.64 t-2.23 -0.64 q-1.28 0 -2.36 0.65 t-1.71 1.73 t-0.63 2.32 t0.63 2.33 t1.71 1.74 t2.36 0.65 q1.16 0 2.23 -0.65 t1.77 -1.67 l2.94 1.14 q-1.06 1.84 -2.91 2.94 z M20.009999999999998 19.49 q-1.37 -0.77 -2.17 -2.09 t-0.8 -2.88 q0 -1.54 0.8 -2.86 t2.17 -2.09 t2.99 -0.77 t3 0.77 t2.19 2.09 t0.81 2.86 q0 1.56 -0.81 2.88 t-2.19 2.09 t-3 0.77 t-2.99 -0.77 z M21.48 11.83 q-0.7 0.41 -1.1 1.12 t-0.4 1.57 q0 0.9 0.39 1.61 t1.08 1.12 t1.55 0.41 q0.84 0 1.53 -0.41 t1.09 -1.13 t0.4 -1.6 q0 -0.86 -0.4 -1.57 t-1.09 -1.12 t-1.53 -0.41 q-0.82 0 -1.52 0.41 z M31.46 4.880000000000001 l3 0 l0 15.12 l-3 0 l0 -15.12 z M40.120000000000005 7.369999999999999 q-0.48 0.47 -1.16 0.47 q-0.7 0 -1.19 -0.47 t-0.49 -1.15 q0 -0.66 0.49 -1.13 t1.19 -0.47 q0.68 0 1.16 0.47 t0.48 1.13 q0 0.68 -0.48 1.15 z M37.46000000000001 9.02 l3 0 l0 10.98 l-3 0 l0 -10.98 z M51.760000000000005 18.9 q-0.38 0.52 -1.31 0.93 t-2.03 0.41 q-1.7 0 -2.95 -0.76 t-1.91 -2.07 t-0.66 -2.91 t0.66 -2.91 t1.91 -2.07 t2.95 -0.76 q1.14 0 2.01 0.39 t1.33 0.99 l0 -1.14 l2.96 0 l0 11 l-2.96 0 l0 -1.1 z M51.06 12.25 q-0.82 -0.87 -2.2 -0.87 q-1.4 0 -2.21 0.87 t-0.81 2.25 q0 1.34 0.83 2.22 t2.19 0.88 q1.4 0 2.21 -0.83 t0.81 -2.27 q0 -1.38 -0.82 -2.25 z M66.89 10.02 q1.03 1.22 1.03 3.48 l0 6.5 l-3.06 0 l0 -6.5 q0 -2.22 -2.12 -2.22 q-0.82 0 -1.48 0.65 t-0.62 2.25 l0 5.82 l-2.98 0 l0 -11 l2.98 0 l0 0.98 q0.54 -0.54 1.36 -0.86 t1.58 -0.32 q2.28 0 3.31 1.22 z M79.18 18.9 q-0.38 0.52 -1.31 0.93 t-2.03 0.41 q-1.7 0 -2.95 -0.76 t-1.91 -2.07 t-0.66 -2.91 t0.66 -2.91 t1.91 -2.07 t2.95 -0.76 q1.14 0 2.01 0.39 t1.33 0.99 l0 -1.14 l2.96 0 l0 11 l-2.96 0 l0 -1.1 z M78.48 12.25 q-0.82 -0.87 -2.2 -0.87 q-1.4 0 -2.21 0.87 t-0.81 2.25 q0 1.34 0.83 2.22 t2.19 0.88 q1.4 0 2.21 -0.83 t0.81 -2.27 q0 -1.38 -0.82 -2.25 z"/></g><g id="SvgjsG1887" featureKey="aAUSXE-0" transform="matrix(0.3999268758145069,0,0,0.3999268758145069,34.88002186097565,235.52826811680464)" fill="#000"><path d="M22.04 4 l-5.2 16 l-2.72 0 l-2.94 -9.88 l-2.96 9.88 l-2.72 0 l-5.2 -16 l3.28 0 l3.38 10.34 l2.92 -10.34 l2.56 0 l2.92 10.36 l3.42 -10.36 l3.26 0 z M47.616 20 l-3.1 0 l0 -7.08 l-6.3 0 l0 7.08 l-3.1 0 l0 -15.98 l3.1 0 l0 6.34 l6.3 0 l0 -6.34 l3.1 0 l0 15.98 z M72.55199999999999 20 l-10.56 0 l0 -15.98 l10.56 0 l0 2.56 l-7.52 0 l0 3.82 l7.42 0 l0 2.5 l-7.42 0 l0 4.4 l7.52 0 l0 2.7 z M98.368 20 l-3.42 0 l-1.14 -3.64 q-0.18 -0.6 -0.45 -1.1 t-0.65 -0.86 t-0.91 -0.56 t-1.25 -0.2 l-1.16 0 l0 6.36 l-3.06 0 l0 -15.98 l6.32 -0.02 q1.02 0 1.9 0.35 t1.52 0.97 t1 1.46 t0.36 1.82 q0 0.7 -0.22 1.36 t-0.62 1.22 t-0.95 0.99 t-1.21 0.65 q0.76 0.28 1.24 0.81 t0.76 1.27 q0.14 0.34 0.26 0.68 t0.25 0.71 t0.28 0.8 t0.33 0.95 q0.22 0.66 0.41 1.13 t0.41 0.83 z M94.30799999999999 8.82 q0 -0.56 -0.21 -1.02 t-0.57 -0.8 t-0.85 -0.53 t-1.05 -0.19 l-2.24 0 l0 4.98 l2.24 0 q0.56 0 1.05 -0.17 t0.85 -0.49 t0.57 -0.77 t0.21 -1.01 z M122.204 20 l-10.56 0 l0 -15.98 l10.56 0 l0 2.56 l-7.52 0 l0 3.82 l7.42 0 l0 2.5 l-7.42 0 l0 4.4 l7.52 0 l0 2.7 z M166.956 20 l-3.04 0 l-7.22 -11.22 l0 11.22 l-3.04 0 l0 -16 l3.48 0 l6.78 10.44 l0 -10.44 l3.04 0 l0 16 z M191.89199999999997 20 l-10.56 0 l0 -15.98 l10.56 0 l0 2.56 l-7.52 0 l0 3.82 l7.42 0 l0 2.5 l-7.42 0 l0 4.4 l7.52 0 l0 2.7 z M219.688 4 l0 8.68 q0 1.6 -0.48 2.98 t-1.39 2.41 t-2.22 1.62 t-2.99 0.59 q-1.64 0 -2.96 -0.58 t-2.25 -1.59 t-1.43 -2.38 t-0.5 -2.95 l0 -8.78 l3.1 0 l0 8.8 q0 0.92 0.26 1.73 t0.76 1.41 t1.25 0.95 t1.71 0.35 q1.02 0 1.77 -0.33 t1.24 -0.92 t0.74 -1.39 t0.25 -1.76 l0 -8.84 l3.14 0 z M245.704 20 l-3.42 0 l-1.14 -3.64 q-0.18 -0.6 -0.45 -1.1 t-0.65 -0.86 t-0.91 -0.56 t-1.25 -0.2 l-1.16 0 l0 6.36 l-3.06 0 l0 -15.98 l6.32 -0.02 q1.02 0 1.9 0.35 t1.52 0.97 t1 1.46 t0.36 1.82 q0 0.7 -0.22 1.36 t-0.62 1.22 t-0.95 0.99 t-1.21 0.65 q0.76 0.28 1.24 0.81 t0.76 1.27 q0.14 0.34 0.26 0.68 t0.25 0.71 t0.28 0.8 t0.33 0.95 q0.22 0.66 0.41 1.13 t0.41 0.83 z M241.644 8.82 q0 -0.56 -0.21 -1.02 t-0.57 -0.8 t-0.85 -0.53 t-1.05 -0.19 l-2.24 0 l0 4.98 l2.24 0 q0.56 0 1.05 -0.17 t0.85 -0.49 t0.57 -0.77 t0.21 -1.01 z M275.36 12 q0 1.72 -0.67 3.24 t-1.83 2.64 t-2.7 1.77 t-3.28 0.65 t-3.29 -0.65 t-2.71 -1.77 t-1.83 -2.63 t-0.67 -3.25 t0.67 -3.26 t1.83 -2.64 t2.71 -1.76 t3.29 -0.64 t3.28 0.64 t2.7 1.77 t1.83 2.64 t0.67 3.25 z M272.24 12 q0 -1.1 -0.42 -2.07 t-1.15 -1.7 t-1.71 -1.16 t-2.08 -0.43 q-1.12 0 -2.1 0.43 t-1.71 1.16 t-1.15 1.7 t-0.42 2.07 q0 1.08 0.42 2.06 t1.15 1.71 t1.71 1.16 t2.1 0.43 q1.1 0 2.08 -0.43 t1.71 -1.16 t1.15 -1.71 t0.42 -2.06 z M303.356 12 q0 1.66 -0.56 3.11 t-1.56 2.54 t-2.39 1.72 t-3.03 0.63 l-6.68 0 l0 -16 l6.68 0 q1.64 0 3.03 0.64 t2.39 1.72 t1.56 2.54 t0.56 3.1 z M300.216 11.92 q0.02 -1.12 -0.34 -2.12 t-1.04 -1.75 t-1.67 -1.18 t-2.23 -0.43 l-2.7 0 l0 10.92 l2.7 0 q1.22 0 2.19 -0.41 t1.65 -1.14 t1.05 -1.72 t0.39 -2.17 z M320.23199999999997 20 l-3.1 0 l0 -15.98 l3.1 0 l0 15.98 z M348.40799999999996 4 l-6.06 16 l-2.84 0 l-6.2 -16 l3.44 0 l4.16 11.24 l4.1 -11.24 l3.4 0 z M372.044 20 l-10.56 0 l0 -15.98 l10.56 0 l0 2.56 l-7.52 0 l0 3.82 l7.42 0 l0 2.5 l-7.42 0 l0 4.4 l7.52 0 l0 2.7 z M397.85999999999996 20 l-3.42 0 l-1.14 -3.64 q-0.18 -0.6 -0.45 -1.1 t-0.65 -0.86 t-0.91 -0.56 t-1.25 -0.2 l-1.16 0 l0 6.36 l-3.06 0 l0 -15.98 l6.32 -0.02 q1.02 0 1.9 0.35 t1.52 0.97 t1 1.46 t0.36 1.82 q0 0.7 -0.22 1.36 t-0.62 1.22 t-0.95 0.99 t-1.21 0.65 q0.76 0.28 1.24 0.81 t0.76 1.27 q0.14 0.34 0.26 0.68 t0.25 0.71 t0.28 0.8 t0.33 0.95 q0.22 0.66 0.41 1.13 t0.41 0.83 z M393.79999999999995 8.82 q0 -0.56 -0.21 -1.02 t-0.57 -0.8 t-0.85 -0.53 t-1.05 -0.19 l-2.24 0 l0 4.98 l2.24 0 q0.56 0 1.05 -0.17 t0.85 -0.49 t0.57 -0.77 t0.21 -1.01 z M421.8159999999999 15.8 q0 0.9 -0.39 1.71 t-1.09 1.43 t-1.66 0.99 t-2.12 0.37 q-1.04 0 -1.87 -0.12 t-1.56 -0.38 t-1.4 -0.67 t-1.39 -0.99 l2.2 -2.22 q0.96 0.8 1.88 1.13 t2 0.33 q0.44 0 0.83 -0.13 t0.68 -0.35 t0.46 -0.52 t0.17 -0.66 q0 -0.38 -0.14 -0.68 t-0.5 -0.58 t-1 -0.57 t-1.64 -0.65 q-0.88 -0.32 -1.69 -0.73 t-1.42 -0.99 t-0.98 -1.36 t-0.37 -1.84 q0 -1.02 0.41 -1.88 t1.12 -1.47 t1.66 -0.95 t2.05 -0.34 q1.84 0 3.1 0.48 t2.24 1.4 l-2.16 2.18 q-0.6 -0.58 -1.34 -0.89 t-1.74 -0.31 q-0.46 0 -0.85 0.14 t-0.67 0.37 t-0.45 0.54 t-0.17 0.65 q0 0.38 0.16 0.69 t0.54 0.6 t1.01 0.58 t1.57 0.63 q1.2 0.42 2.06 0.92 t1.4 1.1 t0.8 1.35 t0.26 1.69 z M445.95199999999994 20 l-10.56 0 l0 -15.98 l10.56 0 l0 2.56 l-7.52 0 l0 3.82 l7.42 0 l0 2.5 l-7.42 0 l0 4.4 l7.52 0 l0 2.7 z M493.3639999999999 20 l-3.04 0 l0 -10.68 l-5.04 8.5 l-4.84 -8.58 l0 10.76 l-3.04 0 l0 -16 l3.5 0 l4.44 7.94 l4.64 -7.94 l3.38 0 l0 16 z M510.8399999999999 20 l-3.1 0 l0 -15.98 l3.1 0 l0 15.98 z M538.516 20 l-3.04 0 l-7.22 -11.22 l0 11.22 l-3.04 0 l0 -16 l3.48 0 l6.78 10.44 l0 -10.44 l3.04 0 l0 16 z M567.1120000000001 12 q0 1.66 -0.56 3.11 t-1.56 2.54 t-2.39 1.72 t-3.03 0.63 l-6.68 0 l0 -16 l6.68 0 q1.64 0 3.03 0.64 t2.39 1.72 t1.56 2.54 t0.56 3.1 z M563.972 11.92 q0.02 -1.12 -0.34 -2.12 t-1.04 -1.75 t-1.67 -1.18 t-2.23 -0.43 l-2.7 0 l0 10.92 l2.7 0 q1.22 0 2.19 -0.41 t1.65 -1.14 t1.05 -1.72 t0.39 -2.17 z M591.568 15.8 q0 0.9 -0.39 1.71 t-1.09 1.43 t-1.66 0.99 t-2.12 0.37 q-1.04 0 -1.87 -0.12 t-1.56 -0.38 t-1.4 -0.67 t-1.39 -0.99 l2.2 -2.22 q0.96 0.8 1.88 1.13 t2 0.33 q0.44 0 0.83 -0.13 t0.68 -0.35 t0.46 -0.52 t0.17 -0.66 q0 -0.38 -0.14 -0.68 t-0.5 -0.58 t-1 -0.57 t-1.64 -0.65 q-0.88 -0.32 -1.69 -0.73 t-1.42 -0.99 t-0.98 -1.36 t-0.37 -1.84 q0 -1.02 0.41 -1.88 t1.12 -1.47 t1.66 -0.95 t2.05 -0.34 q1.84 0 3.1 0.48 t2.24 1.4 l-2.16 2.18 q-0.6 -0.58 -1.34 -0.89 t-1.74 -0.31 q-0.46 0 -0.85 0.14 t-0.67 0.37 t-0.45 0.54 t-0.17 0.65 q0 0.38 0.16 0.69 t0.54 0.6 t1.01 0.58 t1.57 0.63 q1.2 0.42 2.06 0.92 t1.4 1.1 t0.8 1.35 t0.26 1.69 z M634.86 20 l-3.42 0 l-1.14 -3.64 q-0.18 -0.6 -0.45 -1.1 t-0.65 -0.86 t-0.91 -0.56 t-1.25 -0.2 l-1.16 0 l0 6.36 l-3.06 0 l0 -15.98 l6.32 -0.02 q1.02 0 1.9 0.35 t1.52 0.97 t1 1.46 t0.36 1.82 q0 0.7 -0.22 1.36 t-0.62 1.22 t-0.95 0.99 t-1.21 0.65 q0.76 0.28 1.24 0.81 t0.76 1.27 q0.14 0.34 0.26 0.68 t0.25 0.71 t0.28 0.8 t0.33 0.95 q0.22 0.66 0.41 1.13 t0.41 0.83 z M630.8000000000001 8.82 q0 -0.56 -0.21 -1.02 t-0.57 -0.8 t-0.85 -0.53 t-1.05 -0.19 l-2.24 0 l0 4.98 l2.24 0 q0.56 0 1.05 -0.17 t0.85 -0.49 t0.57 -0.77 t0.21 -1.01 z M651.2360000000001 20 l-3.1 0 l0 -15.98 l3.1 0 l0 15.98 z M676.292 15.8 q0 0.9 -0.39 1.71 t-1.09 1.43 t-1.66 0.99 t-2.12 0.37 q-1.04 0 -1.87 -0.12 t-1.56 -0.38 t-1.4 -0.67 t-1.39 -0.99 l2.2 -2.22 q0.96 0.8 1.88 1.13 t2 0.33 q0.44 0 0.83 -0.13 t0.68 -0.35 t0.46 -0.52 t0.17 -0.66 q0 -0.38 -0.14 -0.68 t-0.5 -0.58 t-1 -0.57 t-1.64 -0.65 q-0.88 -0.32 -1.69 -0.73 t-1.42 -0.99 t-0.98 -1.36 t-0.37 -1.84 q0 -1.02 0.41 -1.88 t1.12 -1.47 t1.66 -0.95 t2.05 -0.34 q1.84 0 3.1 0.48 t2.24 1.4 l-2.16 2.18 q-0.6 -0.58 -1.34 -0.89 t-1.74 -0.31 q-0.46 0 -0.85 0.14 t-0.67 0.37 t-0.45 0.54 t-0.17 0.65 q0 0.38 0.16 0.69 t0.54 0.6 t1.01 0.58 t1.57 0.63 q1.2 0.42 2.06 0.92 t1.4 1.1 t0.8 1.35 t0.26 1.69 z M700.428 20 l-10.56 0 l0 -15.98 l10.56 0 l0 2.56 l-7.52 0 l0 3.82 l7.42 0 l0 2.5 l-7.42 0 l0 4.4 l7.52 0 l0 2.7 z"/></g>
			</g>
		</svg>
	